<?xml version="1.0" encoding="UTF-8"?>
<svg xmlns="http://www.w3.org/2000/svg" width="32" height="32" viewBox="0 0 32 32"><g fill="none" fill-rule="evenodd"><path d="M0 0h32v32H0z"/><path fill="currentColor" fill-rule="nonzero" d="M25.333 28c-.866 0-1.644-.25-2.333-.75a3.883 3.883 0 0 1-1.433-1.917h-6.9c-1.467 0-2.723-.522-3.767-1.566-1.044-1.045-1.567-2.3-1.567-3.767s.523-2.722 1.567-3.767c1.044-1.044 2.3-1.566 3.767-1.566h2.666c.734 0 1.362-.262 1.884-.784.523-.523.784-1.15.783-1.883 0-.733-.261-1.361-.784-1.884a2.563 2.563 0 0 0-1.883-.783h-6.9a4.122 4.122 0 0 1-1.45 1.918c-.679.5-1.45.75-2.316.749-1.111 0-2.056-.389-2.834-1.167C3.056 10.056 2.667 9.111 2.667 8c0-1.111.389-2.056 1.166-2.833C4.611 4.389 5.556 4 6.667 4c.866 0 1.639.25 2.317.75.678.501 1.16 1.14 1.448 1.917h6.901c1.467 0 2.723.522 3.767 1.566 1.044 1.045 1.567 2.3 1.567 3.767s-.523 2.722-1.567 3.767c-1.044 1.044-2.3 1.566-3.767 1.566h-2.666c-.734 0-1.362.262-1.884.784A2.563 2.563 0 0 0 12 20c0 .733.261 1.361.784 1.884.523.523 1.15.784 1.883.783h6.9a4.122 4.122 0 0 1 1.45-1.918c.679-.5 1.45-.75 2.316-.749 1.111 0 2.056.389 2.834 1.167.777.777 1.166 1.722 1.166 2.833 0 1.111-.389 2.056-1.166 2.833-.778.778-1.723 1.167-2.834 1.167ZM6.667 9.333c.377 0 .694-.128.95-.384S8.001 8.377 8 8c0-.378-.128-.695-.384-.95a1.285 1.285 0 0 0-.95-.383c-.377 0-.694.128-.95.384A1.285 1.285 0 0 0 5.333 8c0 .378.128.695.384.95.256.257.573.384.95.383Z"/></g></svg>
