<?xml version="1.0" encoding="UTF-8"?>
<svg viewBox="0 0 318 318" version="1.1" xmlns="http://www.w3.org/2000/svg" xmlns:xlink="http://www.w3.org/1999/xlink">
	<path d="M66.7509938,39 C75.3570839,39 83.0389635,41.4895833 89.7767569,46.46875 C96.5145504,51.457875 101.304545,57.82125 104.166617,65.558875 L104.176554,92.1077917 C101.374273,99.7680033 96.357557,106.417653 89.7668192,111.207875 C83.019088,116.187042 75.3570839,118.676625 66.7509938,118.666696 C55.7101553,118.666696 46.318983,114.792875 38.5874147,107.045292 C30.8657841,99.3076667 27,89.8970417 27,78.8333333 C27,67.769625 30.8657841,58.359 38.5874147,50.621375 C46.318983,42.8737917 55.7101553,39 66.7509938,39 Z M66.741056,65.558875 C62.9945249,65.558875 59.8442586,66.8335417 57.300195,69.382875 C54.7804105,71.8690626 53.4022411,75.2909736 53.4940374,78.8333333 C53.4940374,82.5975833 54.7660692,85.754375 57.3101328,88.29375 C59.8541964,90.8530417 63.0044626,92.11775 66.7509938,92.10785 C70.4975249,92.10785 73.6477912,90.833125 76.1918548,88.2837917 C78.7359184,85.7344583 80.0079502,82.587625 79.9980702,78.8333333 C79.9980702,75.0690833 78.7259806,71.9122917 76.181917,69.3729167 C73.698488,66.8453481 70.2795154,65.4641071 66.741056,65.558875 Z" id="Shape" fill="#67B3FF" fill-rule="nonzero"></path>
	<path d="M252.249006,198.333304 C263.289845,198.333304 272.681017,202.207125 280.412585,209.954708 C288.134216,217.692333 292,227.102958 292,238.166667 C292,249.230375 288.134216,258.641 280.412585,266.378625 C272.681017,274.126208 263.289845,278 252.249006,278 C243.642916,278 235.911348,275.510417 229.064239,270.53125 C222.429826,265.829163 217.446073,259.148323 214.823446,251.441125 L214.823446,224.892208 C217.625727,217.231997 222.642443,210.582347 229.233181,205.792125 C235.980912,200.812958 243.642916,198.323375 252.249006,198.333304 Z M252.741056,224.558875 C248.994525,224.558875 245.844259,225.833542 243.300195,228.382875 C240.78041,230.869063 239.402241,234.290974 239.494037,237.833333 C239.494037,241.597583 240.766069,244.754375 243.310133,247.29375 C245.854196,249.853042 249.004463,251.11775 252.750994,251.10785 C256.497525,251.10785 259.647791,249.833125 262.191855,247.283792 C264.735918,244.734458 266.00795,241.587625 265.99807,237.833333 C265.99807,234.069083 264.725981,230.912292 262.181917,228.372917 C259.698488,225.845348 256.279515,224.464107 252.741056,224.558875 Z" id="Shape" fill="#EB5A68" fill-rule="nonzero"></path>
	<path d="M214.823446,251.441125 L146.252981,251.441125 C131.674304,251.441125 119.192492,246.242875 108.817483,235.846375 C98.4424736,225.439917 93.2450311,212.942208 93.2450311,198.333333 C93.2450311,183.724458 98.4424736,171.22675 108.817483,160.820292 C119.192492,150.423792 131.674304,145.225542 146.252981,145.225542 L172.747019,145.225542 C180.041326,145.225542 186.282232,142.616458 191.469737,137.418208 C196.667179,132.21 199.260932,125.966125 199.250994,118.666667 C199.250994,111.367208 196.657241,105.113375 191.459799,99.9051667 C186.567034,94.8242017 179.792403,92.0013001 172.747019,92.1077917 L104.176554,92.1077917 C86.4367438,92 86.4367438,65.558875 104.166617,65.558875 L172.747019,65.558875 C187.325696,65.558875 199.807508,70.757125 210.182517,81.153625 C220.557526,91.5600833 225.754969,104.057792 225.754969,118.666667 C225.754969,133.275542 220.557526,145.77325 210.182517,156.179708 C199.807508,166.576208 187.325696,171.774458 172.747019,171.774458 L146.252981,171.774458 C138.958674,171.774458 132.717768,174.383542 127.530263,179.581792 C122.459801,184.484691 119.642735,191.273355 119.749006,198.333333 C119.749006,205.632792 122.342759,211.886625 127.540201,217.094833 C132.737643,222.303042 138.968612,224.902167 146.252981,224.892208 L214.823446,224.892208 C233.119411,225 233.119411,251.441125 214.823446,251.441125 Z" id="Shape" fill="#FFDA00" fill-rule="nonzero"></path>
	<path d="M213.40263,251.558869 C195.618077,251.450805 194.343558,225.630841 211.612684,224.904496 C211.861909,224.894013 213.14611,224.904496 213.40263,224.904496 C214.004417,224.904496 214.478022,224.904496 214.823446,224.904496 C233.401621,224.904496 233.572162,251.523713 214.788645,251.523713 C214.488343,251.523713 214.026338,251.535432 213.40263,251.558869 Z" id="Shape" fill="#D5465F" fill-rule="nonzero"></path>
	<path d="M104.176554,92.1077917 C86.4367438,92 86.4367438,65.5588687 104.166617,65.5588687 C104.876769,65.5894996 105.401671,65.604815 105.741324,65.604815 C124.009122,65.604815 124.009122,92.0732235 105.539413,92.0732235 C105.244128,92.0732235 104.789842,92.0847462 104.176554,92.1077917 Z" id="Shape" fill="#47A1FF" fill-rule="nonzero"></path>
</svg>
